<?xml version="1.0" encoding="UTF-8" standalone="no"?>
<!DOCTYPE svg PUBLIC "-//W3C//DTD SVG 1.1//EN"
 "http://www.w3.org/Graphics/SVG/1.1/DTD/svg11.dtd">
<!-- Generated by graphviz version 5.0.1 (0)
 -->
<!-- Title: GitRepos Pages: 1 -->
<svg width="999pt" height="786pt"
 viewBox="0.00 0.00 998.71 786.17" xmlns="http://www.w3.org/2000/svg" xmlns:xlink="http://www.w3.org/1999/xlink">
<g id="graph0" class="graph" transform="scale(1 1) rotate(0) translate(4 782.17)">
<title>GitRepos</title>
<!-- main -->
<g id="node1" class="node">
<title>main</title>
<ellipse fill="lightgrey" stroke="black" cx="407.08" cy="-407.08" rx="54" ry="54"/>
<text text-anchor="start" x="368.58" y="-410.88" font-family="Helvetica,sans-Serif" font-size="14.00">MOM&#45;ocean</text>
<text text-anchor="start" x="393.08" y="-396.88" font-family="Inconsolata" font-size="14.00">main</text>
</g>
<!-- gfdl -->
<g id="node2" class="node">
<title>gfdl</title>
<ellipse fill="deepskyblue" stroke="black" cx="573.38" cy="-475.97" rx="54" ry="54"/>
<text text-anchor="start" x="532.88" y="-486.77" font-family="Helvetica,sans-Serif" font-size="14.00">NOAA&#45;GFDL</text>
<text text-anchor="start" x="559.38" y="-472.77" font-family="Inconsolata" font-size="14.00">main</text>
<text text-anchor="start" x="545.88" y="-458.77" font-family="Inconsolata" font-size="14.00">dev/gfdl</text>
</g>
<!-- gfdl&#45;&gt;main -->
<g id="edge1" class="edge">
<title>gfdl&#45;&gt;main</title>
<path fill="none" stroke="white" d="M514.21,-451.46C498.78,-445.06 482.14,-438.17 466.68,-431.77"/>
<polygon fill="white" stroke="white" points="512.91,-454.71 523.49,-455.3 515.59,-448.24 512.91,-454.71"/>
<polygon fill="white" stroke="white" points="467.81,-428.45 457.23,-427.85 465.13,-434.91 467.81,-428.45"/>
</g>
<!-- ncar -->
<g id="node3" class="node">
<title>ncar</title>
<ellipse fill="mediumaquamarine" stroke="black" cx="475.97" cy="-573.38" rx="54" ry="54"/>
<text text-anchor="start" x="456.47" y="-584.18" font-family="Helvetica,sans-Serif" font-size="14.00">NCAR</text>
<text text-anchor="start" x="461.97" y="-570.18" font-family="Inconsolata" font-size="14.00">main</text>
<text text-anchor="start" x="448.47" y="-556.18" font-family="Inconsolata" font-size="14.00">dev/ncar</text>
</g>
<!-- ncar&#45;&gt;main -->
<g id="edge2" class="edge">
<title>ncar&#45;&gt;main</title>
<path fill="none" stroke="white" d="M451.46,-514.21C445.06,-498.78 438.17,-482.14 431.77,-466.68"/>
<polygon fill="white" stroke="white" points="448.24,-515.59 455.3,-523.49 454.71,-512.91 448.24,-515.59"/>
<polygon fill="white" stroke="white" points="434.91,-465.13 427.85,-457.23 428.45,-467.81 434.91,-465.13"/>
</g>
<!-- fsu -->
<g id="node4" class="node">
<title>fsu</title>
<ellipse fill="orange" stroke="black" cx="338.2" cy="-573.38" rx="54" ry="54"/>
<text text-anchor="start" x="324.2" y="-584.18" font-family="Helvetica,sans-Serif" font-size="14.00">FSU</text>
<text text-anchor="start" x="324.2" y="-570.18" font-family="Inconsolata" font-size="14.00">main</text>
<text text-anchor="start" x="314.2" y="-556.18" font-family="Inconsolata" font-size="14.00">dev/fsu</text>
</g>
<!-- fsu&#45;&gt;main -->
<g id="edge3" class="edge">
<title>fsu&#45;&gt;main</title>
<path fill="none" stroke="white" d="M362.71,-514.21C369.1,-498.78 375.99,-482.14 382.4,-466.68"/>
<polygon fill="white" stroke="white" points="359.46,-512.91 358.87,-523.49 365.93,-515.59 359.46,-512.91"/>
<polygon fill="white" stroke="white" points="385.72,-467.81 386.31,-457.23 379.25,-465.13 385.72,-467.81"/>
</g>
<!-- nasa -->
<g id="node5" class="node">
<title>nasa</title>
<ellipse fill="white" stroke="black" cx="240.78" cy="-475.97" rx="54" ry="54"/>
<text text-anchor="start" x="198.28" y="-486.77" font-family="Helvetica,sans-Serif" font-size="14.00">NASA&#45;GMAO</text>
<text text-anchor="start" x="226.78" y="-472.77" font-family="Inconsolata" font-size="14.00">main</text>
<text text-anchor="start" x="213.28" y="-458.77" font-family="Inconsolata" font-size="14.00">dev/gmao</text>
</g>
<!-- nasa&#45;&gt;main -->
<g id="edge4" class="edge">
<title>nasa&#45;&gt;main</title>
<path fill="none" stroke="white" d="M299.96,-451.46C315.39,-445.06 332.03,-438.17 347.49,-431.77"/>
<polygon fill="white" stroke="white" points="298.58,-448.24 290.68,-455.3 301.26,-454.71 298.58,-448.24"/>
<polygon fill="white" stroke="white" points="349.04,-434.91 356.94,-427.85 346.36,-428.45 349.04,-434.91"/>
</g>
<!-- ncep -->
<g id="node6" class="node">
<title>ncep</title>
<ellipse fill="cornflowerblue" stroke="black" cx="240.78" cy="-338.2" rx="54" ry="54"/>
<text text-anchor="start" x="199.78" y="-349" font-family="Helvetica,sans-Serif" font-size="14.00">NOAA&#45;NCEP</text>
<text text-anchor="start" x="226.78" y="-335" font-family="Inconsolata" font-size="14.00">main</text>
<text text-anchor="start" x="213.28" y="-321" font-family="Inconsolata" font-size="14.00">dev/ncep</text>
</g>
<!-- ncep&#45;&gt;main -->
<g id="edge5" class="edge">
<title>ncep&#45;&gt;main</title>
<path fill="none" stroke="white" d="M299.96,-362.71C315.39,-369.1 332.03,-375.99 347.49,-382.4"/>
<polygon fill="white" stroke="white" points="301.26,-359.46 290.68,-358.87 298.58,-365.93 301.26,-359.46"/>
<polygon fill="white" stroke="white" points="346.36,-385.72 356.94,-386.31 349.04,-379.25 346.36,-385.72"/>
</g>
<!-- esmg -->
<g id="node7" class="node">
<title>esmg</title>
<ellipse fill="salmon" stroke="black" cx="338.2" cy="-240.78" rx="54" ry="54"/>
<text text-anchor="start" x="314.2" y="-258.58" font-family="Helvetica,sans-Serif" font-size="14.00">Rutgers</text>
<text text-anchor="start" x="317.2" y="-244.58" font-family="Helvetica,sans-Serif" font-size="14.00">ESMG</text>
<text text-anchor="start" x="324.2" y="-230.58" font-family="Inconsolata" font-size="14.00">main</text>
<text text-anchor="start" x="310.7" y="-216.58" font-family="Inconsolata" font-size="14.00">dev/esmg</text>
</g>
<!-- esmg&#45;&gt;main -->
<g id="edge6" class="edge">
<title>esmg&#45;&gt;main</title>
<path fill="none" stroke="white" d="M362.71,-299.96C369.1,-315.39 375.99,-332.03 382.4,-347.49"/>
<polygon fill="white" stroke="white" points="365.93,-298.58 358.87,-290.68 359.46,-301.26 365.93,-298.58"/>
<polygon fill="white" stroke="white" points="379.25,-349.04 386.31,-356.94 385.72,-346.36 379.25,-349.04"/>
</g>
<!-- access -->
<g id="node8" class="node">
<title>access</title>
<ellipse fill="gold" stroke="black" cx="475.97" cy="-240.78" rx="54" ry="54"/>
<text text-anchor="start" x="447.97" y="-251.58" font-family="Helvetica,sans-Serif" font-size="14.00">ACCESS</text>
<text text-anchor="start" x="461.97" y="-237.58" font-family="Inconsolata" font-size="14.00">main</text>
<text text-anchor="start" x="441.97" y="-223.58" font-family="Inconsolata" font-size="14.00">dev/access</text>
</g>
<!-- access&#45;&gt;main -->
<g id="edge7" class="edge">
<title>access&#45;&gt;main</title>
<path fill="none" stroke="white" d="M451.46,-299.96C445.06,-315.39 438.17,-332.03 431.77,-347.49"/>
<polygon fill="white" stroke="white" points="454.71,-301.26 455.3,-290.68 448.24,-298.58 454.71,-301.26"/>
<polygon fill="white" stroke="white" points="428.45,-346.36 427.85,-356.94 434.91,-349.04 428.45,-346.36"/>
</g>
<!-- kiost -->
<g id="node9" class="node">
<title>kiost</title>
<ellipse fill="salmon" stroke="black" cx="573.38" cy="-338.2" rx="54" ry="54"/>
<text text-anchor="start" x="552.38" y="-349" font-family="Helvetica,sans-Serif" font-size="14.00">KIOST</text>
<text text-anchor="start" x="559.38" y="-335" font-family="Inconsolata" font-size="14.00">main</text>
<text text-anchor="start" x="542.88" y="-321" font-family="Inconsolata" font-size="14.00">dev/kiost</text>
</g>
<!-- kiost&#45;&gt;main -->
<g id="edge8" class="edge">
<title>kiost&#45;&gt;main</title>
<path fill="none" stroke="white" d="M514.21,-362.71C498.78,-369.1 482.14,-375.99 466.68,-382.4"/>
<polygon fill="white" stroke="white" points="515.59,-365.93 523.49,-358.87 512.91,-359.46 515.59,-365.93"/>
<polygon fill="white" stroke="white" points="465.13,-379.25 457.23,-386.31 467.81,-385.72 465.13,-379.25"/>
</g>
<!-- u1_gfdl -->
<g id="node10" class="node">
<title>u1_gfdl</title>
<ellipse fill="deepskyblue" stroke="black" cx="760.17" cy="-477.32" rx="18" ry="18"/>
<text text-anchor="middle" x="760.17" y="-473.62" font-family="Helvetica,sans-Serif" font-size="14.00">user</text>
</g>
<!-- u1_gfdl&#45;&gt;gfdl -->
<g id="edge9" class="edge">
<title>u1_gfdl&#45;&gt;gfdl</title>
<path fill="none" stroke="white" d="M741.92,-477.18C717.92,-477.01 674.49,-476.7 637.73,-476.43"/>
<polygon fill="white" stroke="white" points="637.58,-472.93 627.56,-476.36 637.53,-479.93 637.58,-472.93"/>
</g>
<!-- u2_gfdl -->
<g id="node11" class="node">
<title>u2_gfdl</title>
<ellipse fill="deepskyblue" stroke="black" cx="706.41" cy="-607.09" rx="18" ry="18"/>
<text text-anchor="middle" x="706.41" y="-603.39" font-family="Helvetica,sans-Serif" font-size="14.00">user</text>
</g>
<!-- u2_gfdl&#45;&gt;gfdl -->
<g id="edge10" class="edge">
<title>u2_gfdl&#45;&gt;gfdl</title>
<path fill="none" stroke="white" d="M693.17,-594.04C676.05,-577.16 645.34,-546.89 619.3,-521.23"/>
<polygon fill="white" stroke="white" points="621.68,-518.65 612.1,-514.13 616.76,-523.64 621.68,-518.65"/>
</g>
<!-- u1_ncar -->
<g id="node12" class="node">
<title>u1_ncar</title>
<ellipse fill="mediumaquamarine" stroke="black" cx="607.09" cy="-706.41" rx="18" ry="18"/>
<text text-anchor="middle" x="607.09" y="-702.71" font-family="Helvetica,sans-Serif" font-size="14.00">user</text>
</g>
<!-- u1_ncar&#45;&gt;ncar -->
<g id="edge11" class="edge">
<title>u1_ncar&#45;&gt;ncar</title>
<path fill="none" stroke="white" d="M594.04,-693.17C577.16,-676.05 546.89,-645.34 521.23,-619.3"/>
<polygon fill="white" stroke="white" points="523.64,-616.76 514.13,-612.1 518.65,-621.68 523.64,-616.76"/>
</g>
<!-- u2_ncar -->
<g id="node13" class="node">
<title>u2_ncar</title>
<ellipse fill="mediumaquamarine" stroke="black" cx="477.32" cy="-760.17" rx="18" ry="18"/>
<text text-anchor="middle" x="477.32" y="-756.47" font-family="Helvetica,sans-Serif" font-size="14.00">user</text>
</g>
<!-- u2_ncar&#45;&gt;ncar -->
<g id="edge12" class="edge">
<title>u2_ncar&#45;&gt;ncar</title>
<path fill="none" stroke="white" d="M477.18,-741.92C477.01,-717.92 476.7,-674.49 476.43,-637.73"/>
<polygon fill="white" stroke="white" points="479.93,-637.53 476.36,-627.56 472.93,-637.58 479.93,-637.53"/>
</g>
<!-- u2_fsu -->
<!-- u2_fsu&#45;&gt;fsu -->
<g id="edge14" class="edge">
<title>u2_fsu&#45;&gt;fsu</title>
</g>
<!-- u1_fsu -->
<g id="node15" class="node">
<title>u1_fsu</title>
<ellipse fill="orange" stroke="black" cx="207.08" cy="-706.41" rx="18" ry="18"/>
<text text-anchor="middle" x="207.08" y="-702.71" font-family="Helvetica,sans-Serif" font-size="14.00">user</text>
</g>
<!-- u1_fsu&#45;&gt;fsu -->
<g id="edge13" class="edge">
<title>u1_fsu&#45;&gt;fsu</title>
<path fill="none" stroke="white" d="M220.13,-693.17C237,-676.05 267.27,-645.34 292.94,-619.3"/>
<polygon fill="white" stroke="white" points="295.51,-621.68 300.04,-612.1 290.53,-616.76 295.51,-621.68"/>
</g>
<!-- u1_nasa -->
<g id="node16" class="node">
<title>u1_nasa</title>
<ellipse fill="white" stroke="black" cx="107.75" cy="-607.09" rx="18" ry="18"/>
<text text-anchor="middle" x="107.75" y="-603.39" font-family="Helvetica,sans-Serif" font-size="14.00">user</text>
</g>
<!-- u1_nasa&#45;&gt;nasa -->
<g id="edge15" class="edge">
<title>u1_nasa&#45;&gt;nasa</title>
<path fill="none" stroke="white" d="M121,-594.04C138.12,-577.16 168.83,-546.89 194.86,-521.23"/>
<polygon fill="white" stroke="white" points="197.4,-523.64 202.07,-514.13 192.49,-518.65 197.4,-523.64"/>
</g>
<!-- u2_nasa -->
<!-- u2_nasa&#45;&gt;nasa -->
<g id="edge16" class="edge">
<title>u2_nasa&#45;&gt;nasa</title>
</g>
<!-- note_ncep -->
<g id="node18" class="node">
<title>note_ncep</title>
<polygon fill="none" stroke="none" points="108,-354.85 0,-354.85 0,-318.85 108,-318.85 108,-354.85"/>
<text text-anchor="middle" x="54" y="-340.65" font-family="Helvetica,sans-Serif" font-size="14.00" fill="white">GitHub</text>
<text text-anchor="middle" x="54" y="-325.65" font-family="Helvetica,sans-Serif" font-size="14.00" fill="white">organizations</text>
</g>
<!-- note_ncep&#45;&gt;ncep -->
<g id="edge18" class="edge">
<title>note_ncep&#45;&gt;ncep</title>
<path fill="none" stroke="white" d="M108.03,-337.24C129.42,-337.4 154.19,-337.57 176.5,-337.74"/>
<polygon fill="white" stroke="white" points="176.53,-341.24 186.56,-337.81 176.58,-334.24 176.53,-341.24"/>
</g>
<!-- u1_ncep -->
<g id="node19" class="node">
<title>u1_ncep</title>
<ellipse fill="cornflowerblue" stroke="black" cx="107.75" cy="-207.08" rx="18" ry="18"/>
<text text-anchor="middle" x="107.75" y="-203.38" font-family="Helvetica,sans-Serif" font-size="14.00">user</text>
</g>
<!-- u1_ncep&#45;&gt;ncep -->
<g id="edge17" class="edge">
<title>u1_ncep&#45;&gt;ncep</title>
<path fill="none" stroke="white" d="M121,-220.13C138.12,-237 168.83,-267.27 194.86,-292.94"/>
<polygon fill="white" stroke="white" points="192.49,-295.51 202.07,-300.04 197.4,-290.53 192.49,-295.51"/>
</g>
<!-- u1_esmg -->
<g id="node20" class="node">
<title>u1_esmg</title>
<ellipse fill="salmon" stroke="black" cx="207.08" cy="-107.75" rx="18" ry="18"/>
<text text-anchor="middle" x="207.08" y="-104.05" font-family="Helvetica,sans-Serif" font-size="14.00">user</text>
</g>
<!-- u1_esmg&#45;&gt;esmg -->
<g id="edge19" class="edge">
<title>u1_esmg&#45;&gt;esmg</title>
<path fill="none" stroke="white" d="M220.13,-121C237,-138.12 267.27,-168.83 292.94,-194.86"/>
<polygon fill="white" stroke="white" points="290.53,-197.4 300.04,-202.07 295.51,-192.49 290.53,-197.4"/>
</g>
<!-- u2_esmg -->
<!-- u2_esmg&#45;&gt;esmg -->
<g id="edge20" class="edge">
<title>u2_esmg&#45;&gt;esmg</title>
</g>
<!-- u1_access -->
<g id="node22" class="node">
<title>u1_access</title>
<ellipse fill="gold" stroke="black" cx="477.32" cy="-54" rx="18" ry="18"/>
<text text-anchor="middle" x="477.32" y="-50.3" font-family="Helvetica,sans-Serif" font-size="14.00">user</text>
</g>
<!-- u1_access&#45;&gt;access -->
<g id="edge21" class="edge">
<title>u1_access&#45;&gt;access</title>
<path fill="none" stroke="white" d="M477.18,-72.25C477.01,-96.25 476.7,-139.68 476.43,-176.44"/>
<polygon fill="white" stroke="white" points="472.93,-176.58 476.36,-186.61 479.93,-176.63 472.93,-176.58"/>
</g>
<!-- u2_access -->
<!-- u2_access&#45;&gt;access -->
<g id="edge22" class="edge">
<title>u2_access&#45;&gt;access</title>
</g>
<!-- u1_kiost -->
<g id="node24" class="node">
<title>u1_kiost</title>
<ellipse fill="salmon" stroke="black" cx="706.41" cy="-207.08" rx="18" ry="18"/>
<text text-anchor="middle" x="706.41" y="-203.38" font-family="Helvetica,sans-Serif" font-size="14.00">user</text>
</g>
<!-- u1_kiost&#45;&gt;kiost -->
<g id="edge23" class="edge">
<title>u1_kiost&#45;&gt;kiost</title>
<path fill="none" stroke="white" d="M693.17,-220.13C676.05,-237 645.34,-267.27 619.3,-292.94"/>
<polygon fill="white" stroke="white" points="616.76,-290.53 612.1,-300.04 621.68,-295.51 616.76,-290.53"/>
</g>
<!-- u2_kiost -->
<!-- u2_kiost&#45;&gt;kiost -->
<g id="edge24" class="edge">
<title>u2_kiost&#45;&gt;kiost</title>
</g>
<!-- forks -->
<g id="node26" class="node">
<title>forks</title>
<polygon fill="none" stroke="none" points="990.71,-530.43 882.71,-530.43 882.71,-494.43 990.71,-494.43 990.71,-530.43"/>
<text text-anchor="middle" x="936.71" y="-516.23" font-family="Helvetica,sans-Serif" font-size="14.00" fill="white">GitHub</text>
<text text-anchor="middle" x="936.71" y="-501.23" font-family="Helvetica,sans-Serif" font-size="14.00" fill="white">forks</text>
</g>
<!-- forks&#45;&gt;u1_gfdl -->
<g id="edge25" class="edge">
<title>forks&#45;&gt;u1_gfdl</title>
<path fill="none" stroke="white" d="M882.3,-501.61C851.09,-495.4 813.24,-487.87 788.02,-482.86"/>
<polygon fill="white" stroke="white" points="788.53,-479.39 778.04,-480.87 787.17,-486.26 788.53,-479.39"/>
</g>
<!-- forks&#45;&gt;u1_ncar -->
<g id="edge26" class="edge">
<title>forks&#45;&gt;u1_ncar</title>
<path fill="none" stroke="white" d="M905.99,-530.51C840.91,-568.81 690.28,-657.46 631.34,-692.14"/>
<polygon fill="white" stroke="white" points="629.54,-689.14 622.7,-697.22 633.09,-695.17 629.54,-689.14"/>
</g>
</g>
</svg>
